<svg id="Capa_1" enable-background="new 0 0 512 512" height="512" viewBox="0 0 512 512" width="512" xmlns="http://www.w3.org/2000/svg"><g><g><path d="m200.483 103.309h94.017v77.073h-94.017z" fill="#615260"/><path d="m281.517 103.309h30v77.073h-30z" fill="#4e3d4d"/><path d="m111.384 123.874h-18.62c-5.523 0-10 4.477-10 10v27.197l38.62 10v-37.197c0-5.522-4.477-10-10-10z" fill="#ff7671"/><path d="m121.384 123.874h-17c5.523 0 10 4.477 10 10v37.196l17-10v-27.196c0-5.522-4.477-10-10-10z" fill="#ff5149"/><path d="m461.5 480.339h-429c-13.807 0-25-11.193-25-25v-269.268c0-13.807 11.193-25 25-25h429c13.807 0 25 11.193 25 25v269.268c0 13.807-11.193 25-25 25z" fill="#5e9ad8"/><path d="m479.5 161.071h-30c13.807 0 25 11.193 25 25v269.268c0 13.807-11.193 22-25 22h27c13.807 0 25-8.193 25-22l3-208.033v-61.235c0-13.807-11.193-25-25-25z" fill="#3e84cb"/><path d="m307.89 130.874h-113.78c-13.807 0-25-11.193-25-25v-49.213c0-13.807 11.193-25 25-25h113.78c13.807 0 25 11.193 25 25v49.213c0 13.808-11.193 25-25 25z" fill="#5e9ad8"/><path d="m317.89 31.661h-30.32c13.807 0 25 11.193 25 25v49.213c0 13.807-11.193 25-25 25h30.32c13.807 0 25-11.193 25-25v-49.213c0-13.807-11.193-25-25-25z" fill="#3e84cb"/><path d="m295.81 98.027h-79.62c-9.256 0-16.759-7.503-16.759-16.759 0-9.256 7.503-16.759 16.759-16.759h79.621c9.256 0 16.759 7.503 16.759 16.759-.001 9.256-7.504 16.759-16.76 16.759z" fill="#ffe177"/><path d="m92.074 257.929h-36.459c-2.761 0-5-2.238-5-5v-46.459c0-2.761 2.239-5 5-5h36.458c2.761 0 5 2.239 5 5v46.458c.001 2.762-2.238 5.001-4.999 5.001z" fill="#ffe177"/><path d="m102.074 201.471h-17c2.761 0 5 2.238 5 5v46.458c0 2.761-2.239 5-5 5h17c2.761 0 5-2.239 5-5v-46.458c0-2.762-2.239-5-5-5z" fill="#ffc344"/><path d="m7.5 394.104v61.235c0 13.807 11.193 25 25 25h429c13.807 0 25-11.193 25-25v-71.235l-69.461 10z" fill="#ff7671"/><path d="m474.5 393.264v62.075c0 13.807-11.193 25-25 25h30c13.807 0 25-11.193 25-25v-62.075l-12.689-3z" fill="#ff5149"/><path d="m417.039 394.104h57.461l17.311-62.089-17.311-84.709h-42.461c-8.284 0-15 6.716-15 15z" fill="#615260"/><path d="m474.5 247.306h30v146.798h-30z" fill="#4e3d4d"/><path d="m362.011 320.705c0 59.653-46.358 107.011-106.011 107.011-3.728 0-7.413.811-11.044.442-54.465-5.531-96.967-51.529-96.967-107.453 0-55.768 42.265-101.665 96.51-107.406 3.779-.4 7.616.395 11.501.395 59.653 0 106.011 47.358 106.011 107.011z" fill="#eaf3ff"/><path d="m256 212.694c-3.885 0-7.721.21-11.5.61 54.245 5.742 96.511 51.633 96.511 107.401s-42.266 101.659-96.511 107.401c3.779.4 7.615.61 11.5.61 59.653 0 108.011-48.358 108.011-108.011s-48.358-108.011-108.011-108.011z" fill="#d5eaff"/><circle cx="256" cy="320.705" fill="#615260" r="73.399"/><circle cx="256" cy="320.705" fill="#eaf3ff" r="22.5"/></g><g><path d="m256 401.603c44.608 0 80.899-36.291 80.899-80.898 0-44.608-36.291-80.899-80.899-80.899s-80.899 36.291-80.899 80.899 36.291 80.898 80.899 80.898zm0-146.797c36.337 0 65.899 29.563 65.899 65.899s-29.562 65.898-65.899 65.898-65.899-29.561-65.899-65.898 29.562-65.899 65.899-65.899z"/><path d="m256 350.705c16.542 0 30-13.458 30-30s-13.458-30-30-30-30 13.458-30 30 13.458 30 30 30zm0-45c8.272 0 15 6.728 15 15 0 8.271-6.728 15-15 15-8.271 0-15-6.729-15-15s6.729-15 15-15z"/><path d="m479.5 153.571h-160.482v-15.226c17.4-.598 31.372-14.929 31.372-32.472v-49.212c0-17.921-14.579-32.5-32.5-32.5h-123.78c-17.921 0-32.5 14.579-32.5 32.5v49.213c0 17.543 13.972 31.874 31.372 32.472v15.226h-54.099v-19.697c0-9.649-7.851-17.5-17.5-17.5h-28.62c-9.649 0-17.5 7.851-17.5 17.5v19.697h-42.763c-17.921 0-32.5 14.579-32.5 32.5v269.268c0 17.921 14.579 32.5 32.5 32.5h447c17.921 0 32.5-14.579 32.5-32.5v-269.269c0-17.921-14.579-32.5-32.5-32.5zm-302.89-47.697v-49.213c0-9.649 7.851-17.5 17.5-17.5h123.78c9.65 0 17.5 7.851 17.5 17.5v49.213c0 9.649-7.85 17.5-17.5 17.5h-123.78c-9.649 0-17.5-7.851-17.5-17.5zm31.372 32.5h96.035v15.197h-96.035zm-117.718-4.5c0-1.379 1.121-2.5 2.5-2.5h28.62c1.379 0 2.5 1.121 2.5 2.5v19.697h-33.62zm-57.764 34.697h447c9.649 0 17.5 7.851 17.5 17.5v53.734h-64.961c-12.406 0-22.5 10.094-22.5 22.5v42.056c0 4.143 3.357 7.5 7.5 7.5s7.5-3.357 7.5-7.5v-42.056c0-4.136 3.364-7.5 7.5-7.5h64.961v131.798h-72.461v-49.556c0-4.143-3.357-7.5-7.5-7.5s-7.5 3.357-7.5 7.5v49.556h-58.727c13.039-18.703 20.698-41.421 20.698-65.898 0-63.693-51.818-115.512-115.511-115.512-27.798 0-54.659 10.017-75.637 28.206-20.764 18.003-34.458 42.805-38.561 69.837-.622 4.095 2.194 7.919 6.29 8.54 4.082.619 7.918-2.194 8.54-6.29 3.568-23.509 15.485-45.085 33.557-60.754 18.251-15.824 41.623-24.539 65.811-24.539 55.422 0 100.511 45.089 100.511 100.512 0 55.422-45.089 100.511-100.511 100.511-24.189 0-47.561-8.715-65.811-24.539-18.071-15.669-29.988-37.245-33.557-60.754-.621-4.096-4.451-6.91-8.54-6.29-4.096.621-6.912 4.445-6.29 8.54 2.655 17.495 9.349 34.042 19.356 48.431h-146.157v-200.533c0-9.649 7.851-17.5 17.5-17.5zm447 304.268h-336.697v-35.617c0-4.143-3.357-7.5-7.5-7.5s-7.5 3.357-7.5 7.5v35.617h-13.229v-35.617c0-4.143-3.357-7.5-7.5-7.5-4.142 0-7.5 3.357-7.5 7.5v35.617h-13.229v-35.617c0-4.143-3.357-7.5-7.5-7.5s-7.5 3.357-7.5 7.5v35.617h-38.845c-9.649 0-17.5-7.851-17.5-17.5v-53.735h158.574c2.174 2.215 4.429 4.36 6.789 6.406 20.977 18.189 47.839 28.206 75.637 28.206 32.218 0 61.393-13.264 82.364-34.612h158.636v53.735c0 9.649-7.851 17.5-17.5 17.5z"/><path d="m287 292.205c4.142 0 7.5-3.358 7.5-7.5 0-4.142-3.358-7.5-7.5-7.5s-7.5 3.358-7.5 7.5c0 4.142 3.358 7.5 7.5 7.5z"/><path d="m460.77 363.348c4.143 0 7.5-3.357 7.5-7.5v-70.286c0-4.143-3.357-7.5-7.5-7.5-4.142 0-7.5 3.357-7.5 7.5v70.286c0 4.142 3.357 7.5 7.5 7.5z"/><path d="m55.615 265.429h46.458c6.893 0 12.5-5.607 12.5-12.5v-46.458c0-6.893-5.607-12.5-12.5-12.5h-46.458c-6.893 0-12.5 5.607-12.5 12.5v46.458c0 6.892 5.608 12.5 12.5 12.5zm2.5-56.458h41.458v41.458h-41.458z"/><path d="m50.615 299.705h56.458c4.143 0 7.5-3.357 7.5-7.5s-3.357-7.5-7.5-7.5h-56.458c-4.143 0-7.5 3.357-7.5 7.5s3.358 7.5 7.5 7.5z"/><path d="m216.189 105.527h79.621c13.376 0 24.259-10.883 24.259-24.26 0-13.376-10.883-24.259-24.259-24.259h-31.892c-4.143 0-7.5 3.357-7.5 7.5s3.357 7.5 7.5 7.5h31.892c5.105 0 9.259 4.153 9.259 9.259 0 5.105-4.153 9.26-9.259 9.26h-79.621c-5.105 0-9.259-4.154-9.259-9.26 0-5.105 4.153-9.259 9.259-9.259h15.043c4.143 0 7.5-3.357 7.5-7.5s-3.357-7.5-7.5-7.5h-15.043c-13.376 0-24.259 10.883-24.259 24.259.001 13.378 10.884 24.26 24.259 24.26z"/></g></g></svg>